<svg width="25" height="25" viewBox="0 0 25 25" fill="none" xmlns="http://www.w3.org/2000/svg">
<g id="majesticons:search-line">
<path id="Vector" d="M20.8333 20.8334L16.6145 16.6146L20.8333 20.8334ZM16.6145 16.6146C17.2917 15.9375 17.8288 15.1336 18.1953 14.2489C18.5617 13.3642 18.7503 12.416 18.7503 11.4584C18.7503 10.5008 18.5617 9.55253 18.1953 8.66782C17.8288 7.78311 17.2917 6.97924 16.6145 6.30211C15.9374 5.62498 15.1336 5.08785 14.2488 4.72139C13.3641 4.35493 12.4159 4.16632 11.4583 4.16632C10.5007 4.16632 9.55247 4.35493 8.66776 4.72139C7.78305 5.08785 6.97918 5.62498 6.30205 6.30211C4.93453 7.66963 4.16626 9.52439 4.16626 11.4584C4.16626 13.3923 4.93453 15.2471 6.30205 16.6146C7.66957 17.9821 9.52433 18.7504 11.4583 18.7504C13.3923 18.7504 15.247 17.9821 16.6145 16.6146V16.6146Z" stroke="white" stroke-width="3" stroke-linecap="round" stroke-linejoin="round"/>
</g>
</svg>
